<svg width="138" height="27" viewBox="0 0 138 27" fill="none" xmlns="http://www.w3.org/2000/svg">
<path d="M128.321 11.2109C130.926 11.5234 133.184 12.2804 135.096 13.482C137.032 14.6595 138 16.4259 138 18.781C138 18.9733 137.976 19.2857 137.928 19.7183C137.642 22.2657 136.733 24.1162 135.204 25.2697C133.674 26.4232 131.834 27 129.683 27C129.133 27 128.572 26.9639 127.998 26.8919C126.66 26.7236 125.321 26.3391 123.983 25.7383C122.645 25.1375 121.402 24.4406 120.255 23.6475C119.825 23.3591 119.514 23.0227 119.323 22.6382C119.155 22.2296 119.072 21.761 119.072 21.2323V16.8344C119.072 15.8011 119.37 15.2844 119.968 15.2844C120.326 15.2844 120.757 15.4646 121.258 15.8251C123.338 17.219 125.692 17.9159 128.321 17.9159C129.253 17.9159 129.958 17.7837 130.436 17.5194C130.914 17.231 131.153 16.8945 131.153 16.51C131.153 16.1495 130.986 15.8251 130.651 15.5367C130.34 15.2243 129.898 14.984 129.325 14.8158C128.823 14.6716 128.142 14.5154 127.281 14.3471C125.775 14.0347 124.533 13.7103 123.553 13.3738C122.597 13.0134 121.713 12.4606 120.9 11.7156C120.087 10.9466 119.526 9.92523 119.215 8.65153C119.072 8.07476 119 7.51001 119 6.95728C119 5.61148 119.382 4.40988 120.147 3.35247C120.912 2.29506 121.952 1.47797 123.266 0.901201C124.604 0.3004 126.062 0 127.64 0C130.34 0 132.802 0.42056 135.025 1.26168C135.981 1.67023 136.458 2.45127 136.458 3.6048V7.60614C136.458 8.59145 136.184 9.08411 135.634 9.08411C135.323 9.08411 134.893 8.90387 134.343 8.54339C132.957 7.58211 131.189 7.02937 129.038 6.88518C128.273 6.83712 127.747 6.81308 127.46 6.81308C126.481 6.81308 125.74 6.95728 125.238 7.24566C124.76 7.53404 124.521 8.05073 124.521 8.79573C124.521 10.1175 125.787 10.9226 128.321 11.2109Z" fill="white"/>
<path d="M112.962 0C113.617 0 114.115 0.184426 114.454 0.553278C114.818 0.89754 115 1.40164 115 2.06557V24.9344C115 25.5984 114.818 26.1025 114.454 26.4467C114.115 26.8156 113.617 27 112.962 27H109.541C108.886 27 108.377 26.8156 108.013 26.4467C107.673 26.1025 107.504 25.5984 107.504 24.9344V18.4795L105.102 25.3402C104.714 26.4467 103.937 27 102.773 27H102.227C101.087 27 100.311 26.4467 99.8981 25.3402L97.4964 18.4795V24.9344C97.4964 25.5984 97.3144 26.1025 96.9505 26.4467C96.6109 26.8156 96.1135 27 95.4585 27H92.0378C91.3828 27 90.8734 26.8156 90.5095 26.4467C90.1698 26.1025 90 25.5984 90 24.9344V2.06557C90 1.40164 90.1698 0.89754 90.5095 0.553278C90.8734 0.184426 91.3828 0 92.0378 0H93.2751C94.4396 0 95.2159 0.553278 95.6041 1.65983L102.482 21.3566L109.396 1.65983C109.808 0.553278 110.585 0 111.725 0H112.962Z" fill="white"/>
<path d="M77.1974 15.4006C77.1017 16.454 76.9103 17.5792 76.6232 18.7762C76.5753 18.9678 76.5155 19.1952 76.4437 19.4586C76.3959 19.7219 76.348 20.0212 76.3002 20.3564H78.2382L77.1974 15.4006ZM67.6868 27C67.1604 27 66.7417 26.8923 66.4307 26.6768C66.1436 26.4613 66 26.174 66 25.8149C66 25.4558 66.1436 25.0368 66.4307 24.558C67.938 22.0442 69.1702 19.4466 70.1272 16.7652C71.1082 14.0599 71.814 11.6897 72.2447 9.6547C72.6993 7.59576 73.13 5.30939 73.5367 2.79558C73.752 1.59853 74.4698 1 75.69 1H78.31C79.4823 1 80.236 1.55064 80.571 2.65193L87.8564 24.7017C87.9521 24.965 88 25.2403 88 25.5276C88 26.0064 87.8445 26.3656 87.5334 26.605C87.2224 26.8683 86.7798 27 86.2055 27H82.2936C81.1691 27 80.4035 26.4613 79.9967 25.384L79.2431 23.337H75.1517C74.6014 24.3904 74.1588 25.1805 73.8238 25.7072C73.5367 26.1621 73.2017 26.4853 72.8189 26.6768C72.4361 26.8923 71.9695 27 71.4192 27H67.6868Z" fill="white"/>
<path d="M60.0264 0C60.6608 0 61.1424 0.184426 61.4714 0.553278C61.8238 0.89754 62 1.40164 62 2.06557V6.01229C62 6.67623 61.8238 7.19262 61.4714 7.56148C61.1424 7.90574 60.6608 8.07787 60.0264 8.07787H53.2599V10.9549H57.8414C58.4758 10.9549 58.9574 11.1393 59.2863 11.5082C59.6388 11.8525 59.815 12.3566 59.815 13.0205V13.9795C59.815 14.6434 59.6388 15.1598 59.2863 15.5287C58.9574 15.873 58.4758 16.0451 57.8414 16.0451H53.2599V18.9221H60.0264C60.6608 18.9221 61.1424 19.1066 61.4714 19.4754C61.8238 19.8197 62 20.3238 62 20.9877V24.9344C62 25.5984 61.8238 26.1025 61.4714 26.4467C61.1424 26.8156 60.6608 27 60.0264 27H47.9736C47.3392 27 46.8458 26.8156 46.4934 26.4467C46.1645 26.1025 46 25.5984 46 24.9344V2.06557C46 1.40164 46.1645 0.89754 46.4934 0.553278C46.8458 0.184426 47.3392 0 47.9736 0H60.0264Z" fill="white"/>
<path d="M29.5735 12.3278C30.3824 12.16 30.9338 11.6805 31.2279 10.8893C31.424 10.3619 31.5221 9.83449 31.5221 9.30705C31.5221 8.77962 31.4363 8.3361 31.2647 7.97649C31.0931 7.61687 30.8603 7.43707 30.5662 7.43707H29.5735V12.3278ZM24.0588 27C23.3971 27 22.8824 26.8202 22.5147 26.4606C22.1716 26.1249 22 25.6335 22 24.9862V3.01383C22 2.36653 22.1716 1.87506 22.5147 1.53942C22.8824 1.17981 23.3971 1 24.0588 1H34.0956C35.5172 1 36.7549 1.34763 37.8088 2.04288C38.8873 2.71415 39.6961 3.62517 40.2353 4.77594C40.799 5.90272 41.0809 7.1254 41.0809 8.44398C41.0809 10.266 40.5662 11.9562 39.5368 13.5145C38.875 14.5214 37.9191 15.4205 36.6691 16.2116C37.625 17.2425 38.7647 17.9378 40.0882 18.2974C40.75 18.4652 41.2279 18.7169 41.5221 19.0526C41.8407 19.3642 42 19.8197 42 20.4191V24.9502C42 25.5256 41.8652 25.9691 41.5956 26.2808C41.326 26.6164 40.9706 26.7842 40.5294 26.7842C40.2843 26.7842 40.0025 26.7243 39.6838 26.6044C37.723 25.8133 35.8848 24.7464 34.1691 23.4039C32.4534 22.0373 31.0931 20.4071 30.0882 18.5131C29.8431 18.5611 29.6716 18.5851 29.5735 18.5851V24.9862C29.5735 25.6335 29.3897 26.1249 29.0221 26.4606C28.6789 26.8202 28.1765 27 27.5147 27H24.0588Z" fill="white"/>
<path d="M10 15.3715C10.1235 14.7174 10.1852 13.8694 10.1852 12.8277C10.1852 11.7133 10.0864 10.6716 9.88889 9.70256C9.71605 8.73351 9.44444 8.04307 9.07407 7.63122C8.82716 7.36474 8.44444 7.23149 7.92593 7.23149C7.53086 7.23149 7.07407 7.31629 6.55556 7.48587V18.1696C7.37037 18.1696 7.98765 18.1211 8.40741 18.0242C8.82716 17.9031 9.16049 17.6487 9.40741 17.2611C9.67901 16.8493 9.87654 16.2194 10 15.3715ZM2.14815 27C1.45679 27 0.925926 26.8183 0.555556 26.4549C0.185185 26.1157 0 25.6191 0 24.965V2.65276C0 2.02288 0.160494 1.52624 0.481482 1.16285C0.802469 0.775235 1.27161 0.532974 1.88889 0.436071C4.01235 0.145357 5.88889 0 7.51852 0C10.2593 0 12.2716 0.363391 13.5556 1.09017C15.4568 2.15612 16.8395 3.86406 17.7037 6.214C18.5679 8.56393 19 11.1198 19 13.8816C19 15.0202 18.9259 16.1104 18.7778 17.1521C18.6296 18.1938 18.4444 19.0902 18.2222 19.8412C17.5556 21.9489 16.5679 23.5114 15.2593 24.5289C13.9753 25.5464 12.3333 26.2005 10.3333 26.4913C8.35802 26.8062 5.62963 26.9758 2.14815 27Z" fill="white"/>
</svg>
